<?xml version="1.0" encoding="UTF-8"?>
<svg version="1.1" xmlns="http://www.w3.org/2000/svg" width="375" height="489">
<path d="M0 0 C123.75 0 247.5 0 375 0 C375 161.37 375 322.74 375 489 C251.25 489 127.5 489 0 489 C0 327.63 0 166.26 0 0 Z " fill="#B5D8FA" transform="translate(0,0)"/>
<path d="M0 0 C2.85293477 3.56616846 5.6036976 7.14142322 8.3125 10.8125 C9.86630429 12.88182028 11.43184445 14.94145904 13 17 C13.54398438 17.71671875 14.08796875 18.4334375 14.6484375 19.171875 C30.27633444 38.36959611 54.96055373 49.12009985 79 52 C83.40046475 52.30234216 87.77737316 52.38131597 92.1875 52.375 C93.99021362 52.37258301 93.99021362 52.37258301 95.8293457 52.37011719 C116.53968731 52.09381677 137.00643193 47.87526469 156.8125 42 C178.10874345 35.86668189 198.59895018 32.93846523 220 40 C220.64888184 40.20898926 221.29776367 40.41797852 221.96630859 40.63330078 C245.66301305 48.42327873 265.51448666 62.81156935 285 78 C307.08169095 95.12157735 333.01309047 103.5114149 360.625 105.125 C365.36875 105.41375 370.1125 105.7025 375 106 C375 119.86 375 133.72 375 148 C251.25 148 127.5 148 0 148 C0 99.16 0 50.32 0 0 Z " fill="#FDFEFE" transform="translate(0,341)"/>
<path d="M0 0 C0.33 3.96 0.66 7.92 1 12 C2.9490625 11.319375 2.9490625 11.319375 4.9375 10.625 C5.66839844 10.36976563 6.39929688 10.11453125 7.15234375 9.8515625 C9.18682116 9.14728587 9.18682116 9.14728587 10 7 C13.53731582 8.17910527 14.06827369 9.1550629 16.1875 12.125 C21.6815005 19.34438909 28.16208939 24.16426827 35.625 29.1875 C47.85803423 37.42432396 59.74576998 47.07951574 68.9375 58.6875 C72.24898771 62.67405683 76.3925806 64.77000901 81 67 C81.66 67.33 82.32 67.66 83 68 C92.28376827 69.19449136 99.34976275 67.3463048 107 62 C111.30687351 58.2990802 115.15528483 54.16962068 119 50 C119.99 49.01 120.98 48.02 122 47 C122 65.81 122 84.62 122 104 C127.28 104 132.56 104 138 104 C136.02 104.99 136.02 104.99 134 106 C132.62913085 107.29470975 131.28659163 108.62150897 130 110 C130.30744141 111.12148438 130.30744141 111.12148438 130.62109375 112.265625 C130.89050781 113.25046875 131.15992188 114.2353125 131.4375 115.25 C131.70433594 116.22453125 131.97117188 117.1990625 132.24609375 118.203125 C132.85544584 120.46372653 133.44238255 122.72622009 134 125 C132.68 124.67 131.36 124.34 130 124 C128.02 119.71 126.04 115.42 124 111 C96.28 110.67 68.56 110.34 40 110 C39.34 111.98 38.68 113.96 38 116 C37.31500969 117.63497688 36.60853632 119.2612201 35.875 120.875 C35.34519531 122.04675781 35.34519531 122.04675781 34.8046875 123.2421875 C34.53914063 123.82226562 34.27359375 124.40234375 34 125 C33.01 125 32.02 125 31 125 C31.63156995 119.94744036 33.13459373 115.70406799 35 111 C34.34 110.38125 33.68 109.7625 33 109.125 C31 107 31 107 31 105 C29.9275 104.9175 28.855 104.835 27.75 104.75 C23.45453628 103.89090726 22.43431209 103.58174561 20 100 C19.43850745 96.36818861 19.53582363 92.77639506 19.609375 89.109375 C19.61503479 88.04962463 19.62069458 86.98987427 19.62652588 85.89801025 C19.6489076 82.51487972 19.69910902 79.13281016 19.75 75.75 C19.7700626 73.45574447 19.78831379 71.16147233 19.8046875 68.8671875 C19.8487782 63.24442997 19.91570864 57.62229079 20 52 C18.5783252 52.029729 18.5783252 52.029729 17.12792969 52.06005859 C12.93736356 51.97959658 11.4600492 50.7419685 8.47265625 47.984375 C6.24672973 44.9849833 5.82501476 42.0215516 5.38671875 38.3671875 C4.98432667 35.90406023 4.22031546 34.16170168 3 32 C2.34 32.70125 1.68 33.4025 1 34.125 C-5.4172918 40.43533694 -11.55079875 43.88549267 -20.14453125 46.7265625 C-23.18419952 48.08214643 -24.30838761 49.18658149 -26 52 C-25.23518519 47.41111111 -25.23518519 47.41111111 -24.0078125 45.265625 C-22.64269748 42.19676178 -22.54231716 39.34076757 -22.25 36 C-21.23512651 27.13626928 -10.99886626 0 0 0 Z " fill="#8D96FC" transform="translate(111,223)"/>
<path d="M0 0 C5.61 0 11.22 0 17 0 C15.24215247 8.28699552 15.24215247 8.28699552 13.875 12.3125 C12.7936093 15.16285516 12.7936093 15.16285516 13 19 C13.99 18.34 14.98 17.68 16 17 C24.62305966 15.99244978 32.90084431 17.53717262 41.30078125 19.26953125 C44.36052883 19.87372639 47.33722058 20.32433697 50.4375 20.625 C54 21 54 21 55 22 C56.20402855 39.86304656 56.20402855 39.86304656 51 47 C49.515 47.495 49.515 47.495 48 48 C48.7427417 48.70177368 48.7427417 48.70177368 49.50048828 49.41772461 C51.73772752 51.56286706 53.93059719 53.74859235 56.125 55.9375 C56.90488281 56.67291016 57.68476563 57.40832031 58.48828125 58.16601562 C63.89684164 63.64637107 63.89684164 63.64637107 64.18432617 67.41870117 C63.31368697 72.04543132 61.60135488 75.26768772 58.0625 78.4375 C57.37285156 79.07558594 56.68320312 79.71367187 55.97265625 80.37109375 C51.55962094 84.01512489 51.55962094 84.01512489 48.6875 83.9375 C45.00802759 82.65396311 42.8810852 80.61307727 40 78 C39.319375 78.804375 38.63875 79.60875 37.9375 80.4375 C34.48189131 83.45196715 32.46237375 83.54272495 28 84 C28.00999275 84.84778267 28.00999275 84.84778267 28.02018738 85.71269226 C28.08661724 91.60129095 28.13183232 97.48978297 28.16479492 103.37866211 C28.17987052 105.57564621 28.20033426 107.77260026 28.22631836 109.96948242 C28.26275502 113.12947 28.27973884 116.28905924 28.29296875 119.44921875 C28.30845261 120.42960617 28.32393646 121.40999359 28.33988953 122.42008972 C28.34112467 127.43809323 28.30150039 130.93119438 25 135 C24.67 135.33 24.34 135.66 24 136 C17.73 136 11.46 136 5 136 C4.67 117.52 4.34 99.04 4 80 C1.69 82.64 -0.62 85.28 -3 88 C-9.03461596 94.86289659 -15.91475353 100.01462634 -25.16015625 101.51171875 C-35.83053739 101.90292109 -41.60076144 97.70877776 -49.3125 90.8046875 C-51 89 -51 89 -51 87 C-50.34773437 86.79246094 -49.69546875 86.58492188 -49.0234375 86.37109375 C-41.50136494 83.7195077 -37.45745966 80.46810847 -33.625 73.5 C-32.35244181 68.40976724 -32.32797635 65.15504065 -35 60.5625 C-35.66 59.716875 -36.32 58.87125 -37 58 C-36.67 57.34 -36.34 56.68 -36 56 C-35.48050781 56.27714844 -34.96101563 56.55429688 -34.42578125 56.83984375 C-30.63783995 58.80733267 -27.29300887 60.46337389 -23 61 C-22.74734375 60.30132812 -22.4946875 59.60265625 -22.234375 58.8828125 C-20.84957594 55.64869318 -19.13344493 52.84617089 -17.25 49.875 C-12.40601401 42.14471828 -7.99164754 34.20505327 -4 26 C-4.99 26 -5.98 26 -7 26 C-6.66076243 16.67096692 -3.21593997 8.68988034 0 0 Z " fill="#96B7FE" transform="translate(228,191)"/>
<path d="M0 0 C0.33 0 0.66 0 1 0 C1.33 3.63 1.66 7.26 2 11 C4.475 11.495 4.475 11.495 7 12 C7 8.7 7 5.4 7 2 C8.32 2.66 9.64 3.32 11 4 C14.53259546 4.33262818 18.04409624 4.44103421 21.58984375 4.55859375 C25.21173949 5.02740729 27.05131408 5.91284318 30 8 C30.99 8.66 31.98 9.32 33 10 C33 8.02 33 6.04 33 4 C36 5 36 5 37 7 C37.375 9.875 37.375 9.875 37 13 C35.3603279 14.36639342 33.68889872 15.6949419 32 17 C29.33958829 21.29691496 27 25.88955643 27 31 C27.61746094 30.7834375 28.23492187 30.566875 28.87109375 30.34375 C41.80525202 26.09142399 41.80525202 26.09142399 47.79003906 28.81445312 C50.50113811 30.21103913 53.15875924 31.66921308 55.7722168 33.24145508 C59.25512428 35.35155506 59.25512428 35.35155506 63.19140625 36.03125 C65.73937271 34.57841383 67.26609503 32.69575148 69.125 30.4375 C70.37635068 28.92407399 71.66009358 27.43561402 73 26 C73.66 26 74.32 26 75 26 C75.24621094 25.44828125 75.49242187 24.8965625 75.74609375 24.328125 C77.24982039 21.53615902 79.07378099 19.21875464 81.0625 16.75 C81.77535156 15.85796875 82.48820312 14.9659375 83.22265625 14.046875 C83.80917969 13.37140625 84.39570313 12.6959375 85 12 C85.33 12 85.66 12 86 12 C86 13.65 86 15.3 86 17 C86.99 17 87.98 17 89 17 C85.59573545 29.59577883 76.80521334 41.00374897 70 52 C65.02943092 51.39123827 61.38848217 50.46183146 57 48 C57.99 49.5159375 57.99 49.5159375 59 51.0625 C61.15446336 54.89436698 61.62299399 57.56116785 61 62 C58.66138837 69.11270046 54.36522027 73.58208989 47.8984375 77.1640625 C45.28588398 78.15184775 43.7682232 78.45909777 41 78 C38.15476254 75.87414186 35.94705693 73.48939187 33.57421875 70.84765625 C27.16948084 63.76259717 19.24029089 58.42165752 11.4375 53 C1.1800025 45.84146134 -7.33869166 38.73586496 -14 28 C-14.50789063 27.21238281 -15.01578125 26.42476562 -15.5390625 25.61328125 C-18.31646189 21.04376103 -20.09737491 17.48687457 -19 12 C-14.5292101 7.94834666 -7.84907924 7 -2 7 C-1.34 4.69 -0.68 2.38 0 0 Z " fill="#FBFBFB" transform="translate(135,200)"/>
<path d="M0 0 C4 5 4 5 5.5703125 7.10546875 C8.03512953 10.4063418 10.33175651 13.43825782 13.5 16.1015625 C22.353285 23.55834718 24.350197 32.91412863 26 44 C26 44.99 26 45.98 26 47 C30.95 47 35.9 47 41 47 C41.4125 48.03125 41.825 49.0625 42.25 50.125 C43.32368687 52.66740948 44.34954781 54.48062824 46 56.75 C51.68939918 65.99527366 52.36974288 77.30183268 50.49609375 87.83203125 C48.68736056 94.56051871 45.43821723 101.45180129 40 106 C37.99584961 106.35644531 37.99584961 106.35644531 35.65234375 106.328125 C34.75257812 106.32361328 33.8528125 106.31910156 32.92578125 106.31445312 C31.93964844 106.29318359 30.95351562 106.27191406 29.9375 106.25 C28.91140625 106.23904297 27.8853125 106.22808594 26.828125 106.21679688 C11.88270875 106.01530533 -3.06206829 105.50041539 -18 105 C-17.296875 101.2109375 -17.296875 101.2109375 -14.625 99.3125 C-11 98 -11 98 0 97 C0 64.99 0 32.98 0 0 Z " fill="#FBE5C6" transform="translate(51,241)"/>
<path d="M0 0 C10.56 0 21.12 0 32 0 C33.57094783 6.19198269 35.13900421 12.38454949 36.69970703 18.57910156 C37.23153663 20.68630194 37.76505474 22.79307691 38.30029297 24.89941406 C39.06922331 27.92663145 39.83207352 30.95532548 40.59375 33.984375 C40.83436157 34.92617615 41.07497314 35.86797729 41.32287598 36.83831787 C41.54310425 37.71892883 41.76333252 38.59953979 41.99023438 39.50683594 C42.18564819 40.27960876 42.38106201 41.05238159 42.58239746 41.84857178 C43 44 43 44 43 48 C34.42 48 25.84 48 17 48 C17.01160156 52.15207031 17.02320312 56.30414063 17.03515625 60.58203125 C17.04158669 63.89159871 17.04700969 67.20116441 17.05175018 70.51073456 C17.05703195 74.00497185 17.06409092 77.4991849 17.07543945 80.9934082 C17.08837754 85.00211828 17.09323569 89.01080267 17.09765625 93.01953125 C17.10281754 94.27272659 17.10797882 95.52592194 17.11329651 96.8170929 C17.11340981 98.55855843 17.11340981 98.55855843 17.11352539 100.33520508 C17.115746 101.35890701 17.11796661 102.38260895 17.12025452 103.43733215 C17 106 17 106 16 109 C15.93259135 110.56118428 15.91485544 112.1250252 15.9375 113.6875 C15.94652344 114.49574219 15.95554687 115.30398437 15.96484375 116.13671875 C15.97644531 116.75160156 15.98804687 117.36648437 16 118 C14.515 117.01 14.515 117.01 13 116 C12.63923645 113.177948 12.63923645 113.177948 12.65942383 109.53076172 C12.65876671 108.53545944 12.65876671 108.53545944 12.65809631 107.52005005 C12.66018932 105.322965 12.68354301 103.12663951 12.70703125 100.9296875 C12.71262542 99.4079734 12.71689636 97.8862539 12.71989441 96.36453247 C12.73135739 92.35635501 12.7608367 88.34850288 12.79400635 84.3404541 C12.82467616 80.25175376 12.83839311 76.16300093 12.85351562 72.07421875 C12.88570539 64.04931311 12.93848482 56.02473449 13 48 C4.42 48 -4.16 48 -13 48 C-11.04225516 38.67192163 -8.45577393 29.66505399 -5.60131836 20.57592773 C-3.46989567 13.74181422 -1.74371243 6.97484973 0 0 Z " fill="#FBE3C3" transform="translate(38,114)"/>
<path d="M0 0 C1.49176758 -0.00290039 1.49176758 -0.00290039 3.01367188 -0.00585938 C4.55571289 0.02991211 4.55571289 0.02991211 6.12890625 0.06640625 C7.15306641 0.05544922 8.17722656 0.04449219 9.23242188 0.03320312 C15.33144148 0.09241691 19.09078723 0.50705084 23.69140625 4.62890625 C26.38683542 8.67205001 26.3559299 11.87999336 25.69140625 16.62890625 C24.03968992 19.87334904 22.71772389 21.9005518 19.75390625 24.00390625 C17.32531061 24.73984432 15.21683801 24.67051139 12.69140625 24.62890625 C12.69806808 25.1940947 12.70472992 25.75928314 12.71159363 26.34159851 C12.77802349 32.2301972 12.82323857 38.11868922 12.85620117 44.00756836 C12.87127677 46.20455246 12.89174051 48.40150651 12.91772461 50.59838867 C12.95416127 53.75837625 12.97114509 56.91796549 12.984375 60.078125 C12.99985886 61.05851242 13.01534271 62.03889984 13.03129578 63.04899597 C13.03253092 68.06699948 12.99290664 71.56010063 9.69140625 75.62890625 C8.69140625 76.62890625 8.69140625 76.62890625 6.83374023 76.74243164 C5.64760132 76.73457642 5.64760132 76.73457642 4.4375 76.7265625 C3.58349609 76.72333984 2.72949219 76.72011719 1.84960938 76.71679688 C0.95177734 76.70841797 0.05394531 76.70003906 -0.87109375 76.69140625 C-1.77279297 76.68689453 -2.67449219 76.68238281 -3.60351562 76.67773438 C-5.83860689 76.6659085 -8.07356812 76.64942845 -10.30859375 76.62890625 C-10.42451466 67.45811622 -10.5133222 58.2875789 -10.56765461 49.11621571 C-10.59373348 44.8574057 -10.62909926 40.59909742 -10.68579102 36.34057617 C-10.74017338 32.22973905 -10.77002716 28.11938407 -10.78297997 24.00821495 C-10.79220883 22.44088845 -10.81023124 20.87358793 -10.83724403 19.30646706 C-10.87362033 17.10843817 -10.878536 14.91239346 -10.8762207 12.71411133 C-10.88732376 11.46390701 -10.89842682 10.2137027 -10.90986633 8.9256134 C-9.8053784 2.86983539 -6.01211779 -0.00484805 0 0 Z " fill="#8D97FD" transform="translate(243.30859375,250.37109375)"/>
<path d="M0 0 C0.99 0.33 1.98 0.66 3 1 C3.495 4.96 3.495 4.96 4 9 C4.66 7.68 5.32 6.36 6 5 C6 6.32 6 7.64 6 9 C6.99 9 7.98 9 9 9 C9 9.66 9 10.32 9 11 C7.68 11 6.36 11 5 11 C4.90912109 12.21236328 4.90912109 12.21236328 4.81640625 13.44921875 C4.73261719 14.51785156 4.64882813 15.58648437 4.5625 16.6875 C4.48128906 17.74324219 4.40007812 18.79898438 4.31640625 19.88671875 C4.03548319 22.65086297 3.59843148 25.28945741 3 28 C3.66 28 4.32 28 5 28 C4.98839844 28.77819092 4.97679687 29.55638184 4.96484375 30.3581543 C4.89641952 38.5623413 5.31776804 46.63954546 6 54.8125 C7.30231943 70.67791842 7.30231943 70.67791842 7 76 C6.34 76.66 5.68 77.32 5 78 C8.96 78.33 12.92 78.66 17 79 C16.505 80.98 16.505 80.98 16 83 C14.02 83 12.04 83 10 83 C9.34 93.89 8.68 104.78 8 116 C6.68 116 5.36 116 4 116 C3.66129817 112.00043584 3.33001275 108.00028974 3 104 C2.90460938 102.87464844 2.80921875 101.74929688 2.7109375 100.58984375 C2.57558594 98.93662109 2.57558594 98.93662109 2.4375 97.25 C2.35371094 96.24453125 2.26992188 95.2390625 2.18359375 94.203125 C1.96987234 90.47436851 2 86.73487641 2 83 C-4.27 83 -10.54 83 -17 83 C-16.95875 84.546875 -16.9175 86.09375 -16.875 87.6875 C-16.85218398 97.16755782 -18.00480363 106.58268964 -19 116 C-20.32 116 -21.64 116 -23 116 C-23.76435405 104.97146297 -24.09960714 94.05639201 -24 83 C-30.27 83 -36.54 83 -43 83 C-43.06058594 84.53269531 -43.12117188 86.06539063 -43.18359375 87.64453125 C-43.26808671 89.70052669 -43.3527302 91.75651595 -43.4375 93.8125 C-43.47681641 94.81732422 -43.51613281 95.82214844 -43.55664062 96.85742188 C-43.83831457 103.59592939 -44.32489406 110.28952975 -45 117 C-46.32 116.67 -47.64 116.34 -49 116 C-49.91050683 104.97636372 -50.1139891 94.05694276 -50 83 C-52.64 83 -55.28 83 -58 83 C-58 81.68 -58 80.36 -58 79 C-44.47 78.67 -30.94 78.34 -17 78 C-18.32 76.68 -19.64 75.36 -21 74 C-21.46981321 69.77168114 -21.30548146 67.04736499 -20.125 63 C-17.47093032 60.50205207 -16.37955049 60.702636 -12.8125 60.6875 C-11.20696626 60.76789153 -9.60184626 60.8647597 -8 61 C-8.33 60.34 -8.66 59.68 -9 59 C-11.62113708 59 -13.50935112 59.31292445 -16 60 C-16.309375 58.906875 -16.61875 57.81375 -16.9375 56.6875 C-17.58337897 54.44592006 -18.2623117 52.2130649 -19 50 C-18.34 50 -17.68 50 -17 50 C-16.67 49.01 -16.34 48.02 -16 47 C-16 47.99 -16 48.98 -16 50 C-15.34 50 -14.68 50 -14 50 C-13.67 50.99 -13.34 51.98 -13 53 C-12.01 53 -11.02 53 -10 53 C-9.505 52.01 -9.505 52.01 -9 51 C-9 51.66 -9 52.32 -9 53 C-8.34 53 -7.68 53 -7 53 C-7 44.75 -7 36.5 -7 28 C-4.69 28 -2.38 28 0 28 C-0.495 27.01 -0.495 27.01 -1 26 C-3.02463255 25.34786708 -3.02463255 25.34786708 -5 25 C-5 22.36 -5 19.72 -5 17 C-3.35 17 -1.7 17 0 17 C-1.98 16.34 -3.96 15.68 -6 15 C-5.360625 14.855625 -4.72125 14.71125 -4.0625 14.5625 C-2.02454854 14.18992819 -2.02454854 14.18992819 -1 13 C-0.76518307 10.81707226 -0.58636677 8.62796826 -0.4375 6.4375 C-0.35371094 5.23996094 -0.26992188 4.04242188 -0.18359375 2.80859375 C-0.09271484 1.41833984 -0.09271484 1.41833984 0 0 Z " fill="#FAE5C8" transform="translate(339,235)"/>
<path d="M0 0 C4.69853418 3.02794425 7.01672938 6.57483568 8.8125 11.8125 C9.70001953 11.83376953 9.70001953 11.83376953 10.60546875 11.85546875 C14.91194984 12.11540317 17.28765126 12.43760804 20.875 15 C23.12043205 18.25949813 23.26313661 19.93702513 22.8125 23.8125 C23.75222656 23.68681641 23.75222656 23.68681641 24.7109375 23.55859375 C25.93683594 23.40583984 25.93683594 23.40583984 27.1875 23.25 C27.99960938 23.14558594 28.81171875 23.04117188 29.6484375 22.93359375 C31.8125 22.8125 31.8125 22.8125 33.8125 23.8125 C35.77024069 23.96628852 37.73267352 24.06221463 39.6953125 24.12890625 C40.86191406 24.17080078 42.02851563 24.21269531 43.23046875 24.25585938 C44.45378906 24.29517578 45.67710937 24.33449219 46.9375 24.375 C48.16855469 24.41818359 49.39960938 24.46136719 50.66796875 24.50585938 C53.71602853 24.61218704 56.7641719 24.71421781 59.8125 24.8125 C55.67432428 31.78925308 51.27462395 37.84163542 44.8125 42.8125 C42.73230317 45.08090512 40.76013616 47.42982484 38.8125 49.8125 C34.39289412 49.23140367 31.36432162 47.52282814 27.5625 45.25 C21.92740791 42.1567211 18.14532593 40.72719238 11.8125 41.8125 C10.89726562 41.96847656 9.98203125 42.12445313 9.0390625 42.28515625 C6.6151629 42.74345659 4.21425517 43.2509205 1.8125 43.8125 C1.19921875 41.50390625 1.19921875 41.50390625 0.8125 38.8125 C2.625 35.75 2.625 35.75 4.8125 32.8125 C5.3075 31.7296875 5.3075 31.7296875 5.8125 30.625 C6.8125 28.8125 6.8125 28.8125 8.9375 27.4375 C11.13466607 25.89077232 11.13466607 25.89077232 11.25 22.8125 C10.78419284 19.61839378 10.33992845 18.70807134 7.8125 16.8125 C7.8125 18.7925 7.8125 20.7725 7.8125 22.8125 C3.8125 20.8125 3.8125 20.8125 2.11328125 19.7734375 C-2.03378879 18.04138448 -6.53021558 18.34271131 -10.97265625 18.15625 C-14.1875 17.8125 -14.1875 17.8125 -17.1875 15.8125 C-17.5175 18.7825 -17.8475 21.7525 -18.1875 24.8125 C-19.8375 24.4825 -21.4875 24.1525 -23.1875 23.8125 C-23.8475 20.5125 -24.5075 17.2125 -25.1875 13.8125 C-25.5175 17.7725 -25.8475 21.7325 -26.1875 25.8125 C-26.5175 25.8125 -26.8475 25.8125 -27.1875 25.8125 C-27.1875 23.8325 -27.1875 21.8525 -27.1875 19.8125 C-29.4975 20.1425 -31.8075 20.4725 -34.1875 20.8125 C-33.70530822 15.38784247 -33.70530822 15.38784247 -31.5 12.9375 C-28.59172845 11.52266519 -26.38134754 11.59473767 -23.1875 11.8125 C-23.166875 11.11125 -23.14625 10.41 -23.125 9.6875 C-21.48475662 4.6574203 -17.20267987 1.92084893 -12.6875 -0.5625 C-8.08386035 -1.71340991 -4.45773942 -1.66072645 0 0 Z " fill="#51596B" transform="translate(160.1875,187.1875)"/>
<path d="M0 0 C5.61 0 11.22 0 17 0 C15.24215247 8.28699552 15.24215247 8.28699552 13.875 12.3125 C12.7936093 15.16285516 12.7936093 15.16285516 13 19 C13.99 18.34 14.98 17.68 16 17 C24.62305966 15.99244978 32.90084431 17.53717262 41.30078125 19.26953125 C44.36052883 19.87372639 47.33722058 20.32433697 50.4375 20.625 C54 21 54 21 55 22 C55.15452849 24.74288063 55.2317504 27.4432164 55.25 30.1875 C55.270625 30.94353516 55.29125 31.69957031 55.3125 32.47851562 C55.34674999 37.4147948 54.65620556 40.68701976 52 45 C51 46 51 46 48.453125 46.55859375 C43.02029953 45.67975434 40.38997547 41.98580689 36.75 38.0625 C35.32995592 36.57247167 33.90816595 35.08410467 32.484375 33.59765625 C31.86272461 32.93258057 31.24107422 32.26750488 30.60058594 31.58227539 C28.05358581 29.0644127 26.9574503 28.99645419 23.25 28.6875 C18.86084288 28.78172162 16.31620808 30.23401479 13 33 C11.79730469 33.96679688 11.79730469 33.96679688 10.5703125 34.953125 C7.69623753 37.28169566 4.84754446 39.6390853 2 42 C0.16781857 43.50140678 -1.66549791 45.00142962 -3.5 46.5 C-4.39332031 47.23089844 -5.28664062 47.96179688 -6.20703125 48.71484375 C-10.8046875 52.4765625 -15.40234375 56.23828125 -20 60 C-20.66 59.34 -21.32 58.68 -22 58 C-21.41992188 57.04480469 -20.83984375 56.08960938 -20.2421875 55.10546875 C-14.48177937 45.5851031 -8.87144058 36.01351674 -4 26 C-4.99 26 -5.98 26 -7 26 C-6.66076243 16.67096692 -3.21593997 8.68988034 0 0 Z " fill="#749BE0" transform="translate(228,191)"/>
<path d="M0 0 C3.66570546 3.66570546 4.86337615 5.39653286 6.6875 10 C7.10386719 11.03125 7.52023438 12.0625 7.94921875 13.125 C11.4995971 22.83904634 11.51023825 34.40371376 7.265625 43.88671875 C6 46 6 46 3.8125 47.98828125 C0.83015028 52.94386667 2.13969628 57.9102595 2.75 63.5 C4.11932503 78.39116342 4.21393843 93.05064078 4 108 C4.66 107.34 5.32 106.68 6 106 C5.44271087 109.34373475 4.64826111 112.03312999 3 115 C2.01 115 1.02 115 0 115 C-0.1136792 114.37134033 -0.2273584 113.74268066 -0.34448242 113.0949707 C-3.09827767 98.71023901 -6.27325057 89.73429835 -17.54980469 80.29638672 C-23.02758644 75.39958182 -27.54289236 67.3430804 -28.17578125 59.9453125 C-28.18571769 58.2958639 -28.10289164 56.6462663 -28 55 C-26.68 55.99 -25.36 56.98 -24 58 C-24 54.04 -24 50.08 -24 46 C-17.30885207 50.46076529 -13.16106013 55.1353069 -9 62 C-8.57460937 62.65226562 -8.14921875 63.30453125 -7.7109375 63.9765625 C-4.51701996 69.74399634 -4.50896029 75.75486433 -4.59033203 82.20678711 C-4.50015551 90.84993101 -1.60251461 98.8404452 1 107 C1.40370721 82.79255275 1.40370721 82.79255275 0.3125 58.625 C0.25916504 57.81458252 0.20583008 57.00416504 0.15087891 56.16918945 C-0.39857068 50.66456271 -2.24250838 48.17999817 -6 44 C-8.66659785 38.85405204 -9.42011952 34.68942761 -9.29296875 28.87890625 C-9.28872391 28.13414536 -9.28447906 27.38938446 -9.28010559 26.62205505 C-9.26345724 24.26848527 -9.22583375 21.91580621 -9.1875 19.5625 C-9.17243515 17.95639267 -9.15874991 16.35027177 -9.14648438 14.74414062 C-9.11359952 10.82908953 -9.06191626 6.91469521 -9 3 C-6.87961365 5.61514317 -4.86908256 8.19637616 -3 11 C-2.01 7.37 -1.02 3.74 0 0 Z " fill="#7FB896" transform="translate(77,173)"/>
<path d="M0 0 C6.76131074 4.5075405 6.76131074 4.5075405 9.5859375 7.13671875 C10.20259277 7.7097876 10.81924805 8.28285645 11.45458984 8.87329102 C12.0883252 9.47197998 12.72206055 10.07066895 13.375 10.6875 C14.03838379 11.3074585 14.70176758 11.92741699 15.38525391 12.56616211 C18.92954831 15.91345463 22.24635632 19.31569689 25.375 23.0625 C28.97395873 27.30074745 32.99686816 29.67489309 38 32 C38.99 32.495 38.99 32.495 40 33 C49.28376827 34.19449136 56.34976275 32.3463048 64 27 C68.30687351 23.2990802 72.15528483 19.16962068 76 15 C76.99 14.01 77.98 13.02 79 12 C79 20.25 79 28.5 79 37 C52.93 37 26.86 37 0 37 C0 24.79 0 12.58 0 0 Z " fill="#4F576B" transform="translate(154,258)"/>
<path d="M0 0 C0.33 3.96 0.66 7.92 1 12 C2.9490625 11.319375 2.9490625 11.319375 4.9375 10.625 C5.66839844 10.36976563 6.39929688 10.11453125 7.15234375 9.8515625 C9.18682116 9.14728587 9.18682116 9.14728587 10 7 C13.53731582 8.17910527 14.06827369 9.1550629 16.1875 12.125 C19.15619634 16.08116525 22.29702116 19.25314373 26.10546875 22.39453125 C28.18761017 24.15898511 30.09217545 26.04987335 32 28 C30.15535156 28.02126953 30.15535156 28.02126953 28.2734375 28.04296875 C26.64058842 28.0898897 25.00777708 28.13813697 23.375 28.1875 C22.56675781 28.19330078 21.75851563 28.19910156 20.92578125 28.20507812 C14.92736477 28.42453239 12.17821195 29.65703206 8 34 C7.505 34.99 7.505 34.99 7 36 C5.68 35.34 4.36 34.68 3 34 C3 33.34 3 32.68 3 32 C2.34 32.70125 1.68 33.4025 1 34.125 C-5.4172918 40.43533694 -11.55079875 43.88549267 -20.14453125 46.7265625 C-23.18419952 48.08214643 -24.30838761 49.18658149 -26 52 C-25.23518519 47.41111111 -25.23518519 47.41111111 -24.0078125 45.265625 C-22.64269748 42.19676178 -22.54231716 39.34076757 -22.25 36 C-21.23512651 27.13626928 -10.99886626 0 0 0 Z " fill="#7FB897" transform="translate(111,223)"/>
<path d="M0 0 C6.27 0 12.54 0 19 0 C19.66 10.89 20.32 21.78 21 33 C31.76973054 33.57836714 31.76973054 33.57836714 42.54052734 34.13623047 C43.88903967 34.21247201 45.23751289 34.28940993 46.5859375 34.3671875 C47.28823486 34.40013916 47.99053223 34.43309082 48.71411133 34.46704102 C53.7718564 34.7718564 53.7718564 34.7718564 56 37 C51.6551344 41.3448656 37.15825477 39.1269406 31.16610718 39.13787842 C29.26332452 39.13709929 27.36054185 39.13457042 25.45776367 39.13037109 C22.57270029 39.12501892 19.68779299 39.13033751 16.80273438 39.13671875 C-5.49574127 39.14777509 -5.49574127 39.14777509 -11 38 C-11.33 37.34 -11.66 36.68 -12 36 C-8.7 35.34 -5.4 34.68 -2 34 C-2.020625 32.55625 -2.04125 31.1125 -2.0625 29.625 C-2.0625 24.27995894 -1.84763535 18.96087256 -1.5625 13.625 C-1.52326416 12.85236816 -1.48402832 12.07973633 -1.44360352 11.28369141 C-1.38064087 10.1726001 -1.38064087 10.1726001 -1.31640625 9.0390625 C-1.27974854 8.38115723 -1.24309082 7.72325195 -1.20532227 7.04541016 C-0.96734922 4.67473455 -0.4672643 2.33632148 0 0 Z " fill="#B7D9F9" transform="translate(296,318)"/>
<path d="M0 0 C0.33 0 0.66 0 1 0 C1.33 3.63 1.66 7.26 2 11 C3.65 11.33 5.3 11.66 7 12 C7 8.7 7 5.4 7 2 C8.32 2.66 9.64 3.32 11 4 C14.53259546 4.33262818 18.04409624 4.44103421 21.58984375 4.55859375 C25.21173949 5.02740729 27.05131408 5.91284318 30 8 C30.99 8.66 31.98 9.32 33 10 C33 8.02 33 6.04 33 4 C36 5 36 5 37 7 C37.375 9.875 37.375 9.875 37 13 C35.3603279 14.36639342 33.68889872 15.6949419 32 17 C29.8430327 20.48378601 28.29332078 24.12003767 27 28 C27.309375 28.9590625 27.309375 28.9590625 27.625 29.9375 C28 32 28 32 27 34.25 C25 36 25 36 21.75 36.375 C14.50302048 35.65030205 9.73248784 33.54636998 4.1875 29.0625 C3.61580078 28.61970703 3.04410156 28.17691406 2.45507812 27.72070312 C-0.2052871 25.62304735 -2.10614196 23.84078706 -4 21 C-3.43396226 14.43396226 -3.43396226 14.43396226 -2 13 C-1.79111292 11.00396794 -1.63224523 9.00257059 -1.5 7 C-1.11111111 1.11111111 -1.11111111 1.11111111 0 0 Z " fill="#EFB39B" transform="translate(135,200)"/>
<path d="M0 0 C1.65 1.65 3.3 3.3 5 5 C5.969375 5.79535156 6.93875 6.59070313 7.9375 7.41015625 C17.54319912 15.52675552 20.3387705 24.71445271 22 37 C22 37.99 22 38.98 22 40 C16.555 40.495 16.555 40.495 11 41 C10.67 42.32 10.34 43.64 10 45 C9.05732348 46.76992326 8.07414757 48.51857384 7.0625 50.25 C0.74363656 61.69062806 0.52157987 74.55627144 4.0625 87.0625 C4.371875 88.031875 4.68125 89.00125 5 90 C3.35 90 1.7 90 0 90 C0 60.3 0 30.6 0 0 Z " fill="#B4D8FA" transform="translate(55,248)"/>
<path d="M0 0 C1.96660372 -0.00067647 3.93320735 -0.00164933 5.89981079 -0.00289917 C9.9924602 -0.00436072 14.08508756 -0.0022723 18.17773438 0.00244141 C23.36326548 0.00813008 28.54874471 0.00485516 33.73427391 -0.00113106 C37.78746922 -0.00478524 41.84065271 -0.00357594 45.89384842 -0.00100327 C47.80316805 -0.00034695 49.71248883 -0.00111575 51.6218071 -0.00348282 C61.42318242 -0.01297132 71.1994074 0.10755627 80.99072266 0.57861328 C81.81262274 0.61733488 82.63452282 0.65605648 83.48132896 0.69595146 C87.73417654 0.92306353 91.84652529 1.33138846 96.0390625 2.1328125 C95.7090625 2.7928125 95.3790625 3.4528125 95.0390625 4.1328125 C72.56862425 5.9603887 50.11949227 6.33384792 27.58663177 6.32128906 C25.44449104 6.32032618 23.30235776 6.32127395 21.16021729 6.32250977 C1.05659014 6.32687227 -19.06829868 6.19290742 -39.12744141 4.72338867 C-40.0315274 4.65874924 -40.9356134 4.5941098 -41.86709595 4.5275116 C-42.55806366 4.39726089 -43.24903137 4.26701019 -43.9609375 4.1328125 C-44.2909375 3.4728125 -44.6209375 2.8128125 -44.9609375 2.1328125 C-40.28251966 1.26053214 -35.64174858 0.83113955 -30.89599609 0.57861328 C-30.11393988 0.53650286 -29.33188366 0.49439243 -28.52612877 0.45100594 C-19.01974177 -0.01760602 -9.51565924 -0.01176779 0 0 Z " fill="#F2EDE5" transform="translate(167.9609375,348.8671875)"/>
<path d="M0 0 C8.25 0 16.5 0 25 0 C25 8.91 25 17.82 25 27 C16.75 27 8.5 27 0 27 C0 18.09 0 9.18 0 0 Z " fill="#FDE5C5" transform="translate(284,285)"/>
<path d="M0 0 C33.33 0 66.66 0 101 0 C100.67 1.32 100.34 2.64 100 4 C99.34 4.33 98.68 4.66 98 5 C98.20496094 5.74765625 98.40992188 6.4953125 98.62109375 7.265625 C98.89050781 8.25046875 99.15992188 9.2353125 99.4375 10.25 C99.70433594 11.22453125 99.97117187 12.1990625 100.24609375 13.203125 C100.85544584 15.46372653 101.44238255 17.72622009 102 20 C100.68 19.67 99.36 19.34 98 19 C96.02 14.71 94.04 10.42 92 6 C64.28 5.67 36.56 5.34 8 5 C7.34 6.98 6.68 8.96 6 11 C5.31500969 12.63497688 4.60853632 14.2612201 3.875 15.875 C3.52179688 16.65617187 3.16859375 17.43734375 2.8046875 18.2421875 C2.53914062 18.82226562 2.27359375 19.40234375 2 20 C1.01 20 0.02 20 -1 20 C-0.36843005 14.94744036 1.13459373 10.70406799 3 6 C2.505 5.566875 2.01 5.13375 1.5 4.6875 C0 3 0 3 0 0 Z " fill="#3F414E" transform="translate(143,328)"/>
<path d="M0 0 C2 1 2 1 2.6328125 2.79296875 C5.82775134 18.33659978 3.9059126 31.28186232 -3.6875 45.0625 C-6.97500973 49.23852588 -10.8524155 52.68529758 -15 56 C-15.33 56 -15.66 56 -16 56 C-16.35702742 34.77670353 -9.3193222 18.77700988 0 0 Z " fill="#81B999" transform="translate(97,195)"/>
<path d="M0 0 C5.61 0 11.22 0 17 0 C15.84858407 5.86175383 14.37873705 11.6294115 12.75 17.375 C12.47990112 18.4278418 12.47990112 18.4278418 12.2043457 19.50195312 C11.16831686 23.02198546 10.5405149 24.69547359 7.2890625 26.52734375 C5.66097656 27.25630859 5.66097656 27.25630859 4 28 C1.37618571 30.2345201 -0.98850998 32.70385642 -3.375 35.1875 C-4.01566406 35.84169922 -4.65632812 36.49589844 -5.31640625 37.16992188 C-6.88468292 38.77330922 -8.44548219 40.38328872 -10 42 C-11 39 -11 39 -9.56640625 35.86328125 C-8.90864027 34.6739872 -8.24022185 33.49053629 -7.5625 32.3125 C-7.22412109 31.70599609 -6.88574219 31.09949219 -6.53710938 30.47460938 C-5.70042085 28.9779975 -4.85137169 27.48830811 -4 26 C-4.99 26 -5.98 26 -7 26 C-6.66076243 16.67096692 -3.21593997 8.68988034 0 0 Z " fill="#53596A" transform="translate(228,191)"/>
<path d="M0 0 C4.12794181 2.64188276 5.76156896 5.33128161 7.125 10 C7.41176074 12.76888645 7.32461636 15.20537097 7.125 18 C3.125 16 3.125 16 1.42578125 14.9609375 C-2.72128879 13.22888448 -7.21771558 13.53021131 -11.66015625 13.34375 C-14.875 13 -14.875 13 -17.875 11 C-18.205 13.97 -18.535 16.94 -18.875 20 C-20.525 19.67 -22.175 19.34 -23.875 19 C-24.535 15.7 -25.195 12.4 -25.875 9 C-26.205 12.96 -26.535 16.92 -26.875 21 C-27.205 21 -27.535 21 -27.875 21 C-27.875 19.02 -27.875 17.04 -27.875 15 C-30.185 15.33 -32.495 15.66 -34.875 16 C-34.39280822 10.57534247 -34.39280822 10.57534247 -32.1875 8.125 C-29.27922845 6.71016519 -27.06884754 6.78223767 -23.875 7 C-23.875 6.34 -23.875 5.68 -23.875 5 C-16.50383023 -1.05376921 -9.12218361 -2.93699302 0 0 Z " fill="#404654" transform="translate(160.875,192)"/>
<path d="M0 0 C18.15 0 36.3 0 55 0 C55 0.99 55 1.98 55 3 C46.42 3 37.84 3 29 3 C29.01160156 7.15207031 29.02320312 11.30414063 29.03515625 15.58203125 C29.04158669 18.89159871 29.04700969 22.20116441 29.05175018 25.51073456 C29.05703195 29.00497185 29.06409092 32.4991849 29.07543945 35.9934082 C29.08837754 40.00211828 29.09323569 44.01080267 29.09765625 48.01953125 C29.10281754 49.27272659 29.10797882 50.52592194 29.11329651 51.8170929 C29.11340981 53.55855843 29.11340981 53.55855843 29.11352539 55.33520508 C29.115746 56.35890701 29.11796661 57.38260895 29.12025452 58.43733215 C29 61 29 61 28 64 C27.93259135 65.56118428 27.91485544 67.1250252 27.9375 68.6875 C27.94652344 69.49574219 27.95554687 70.30398437 27.96484375 71.13671875 C27.97644531 71.75160156 27.98804687 72.36648437 28 73 C26.515 72.01 26.515 72.01 25 71 C24.63923645 68.177948 24.63923645 68.177948 24.65942383 64.53076172 C24.65876671 63.53545944 24.65876671 63.53545944 24.65809631 62.52005005 C24.66018932 60.322965 24.68354301 58.12663951 24.70703125 55.9296875 C24.71262542 54.4079734 24.71689636 52.8862539 24.71989441 51.36453247 C24.73135739 47.35635501 24.7608367 43.34850288 24.79400635 39.3404541 C24.82467616 35.25175376 24.83839311 31.16300093 24.85351562 27.07421875 C24.88570539 19.04931311 24.93848482 11.02473449 25 3 C16.42 3 7.84 3 -1 3 C-0.67 2.01 -0.34 1.02 0 0 Z " fill="#FDE5C5" transform="translate(26,159)"/>
<path d="M0 0 C2.0625 1.25 2.0625 1.25 3 3 C2.46095651 7.58659808 -0.29609447 9.43997827 -3.6875 12.25 C-8.98049294 16.25550817 -13.87314109 19.77163228 -20.8046875 19.30859375 C-25.23777547 18.68543726 -29.60951266 17.87809747 -34 17 C-33.67 12.38 -33.34 7.76 -33 3 C-28.16601562 4.61132812 -28.16601562 4.61132812 -23.33203125 6.22265625 C-19.95423595 7.01067649 -18.23613726 7.15259683 -15 6 C-13.22365731 4.62031188 -13.22365731 4.62031188 -11.6875 2.9375 C-7.73405643 -0.66125826 -5.23634464 -0.7854517 0 0 Z " fill="#FABBA1" transform="translate(316,215)"/>
<path d="M0 0 C3.15406743 1.16817312 4.14899734 2.2043392 6.1875 5 C8.85759428 8.34166344 11.25004476 8.89052676 15.375 9.56640625 C18.490108 10.08095534 21.5042138 10.8423961 24.5625 11.625 C25.59503906 11.88539063 26.62757813 12.14578125 27.69140625 12.4140625 C28.45324219 12.60742188 29.21507812 12.80078125 30 13 C30.625 15.8125 30.625 15.8125 31 19 C30.34 19.99 29.68 20.98 29 22 C17.47961871 23.11487561 5.45189466 19.61969933 -3.5 12.25 C-4.325 11.5075 -5.15 10.765 -6 10 C-5.65066406 9.52949219 -5.30132812 9.05898438 -4.94140625 8.57421875 C-4.48636719 7.95160156 -4.03132813 7.32898438 -3.5625 6.6875 C-2.88380859 5.76517578 -2.88380859 5.76517578 -2.19140625 4.82421875 C-0.82663692 2.90322899 -0.82663692 2.90322899 0 0 Z " fill="#FBBCA2" transform="translate(291,260)"/>
<path d="M0 0 C3.53731582 1.17910527 4.06827369 2.1550629 6.1875 5.125 C9.15619634 9.08116525 12.29702116 12.25314373 16.10546875 15.39453125 C18.18761017 17.15898511 20.09217545 19.04987335 22 21 C20.15535156 21.02126953 20.15535156 21.02126953 18.2734375 21.04296875 C16.64058842 21.0898897 15.00777708 21.13813697 13.375 21.1875 C12.56675781 21.19330078 11.75851563 21.19910156 10.92578125 21.20507812 C4.92736477 21.42453239 2.17821195 22.65703206 -2 27 C-2.33 27.66 -2.66 28.32 -3 29 C-6.875 27.25 -6.875 27.25 -8 25 C-8.375 21.6875 -8.375 21.6875 -8 18 C-5.8272578 15.36983839 -4.05326212 13.52663106 -1 12 C-1.01160156 11.30132812 -1.02320312 10.60265625 -1.03515625 9.8828125 C-1.04417969 8.97273437 -1.05320312 8.06265625 -1.0625 7.125 C-1.07410156 6.22007812 -1.08570312 5.31515625 -1.09765625 4.3828125 C-1 2 -1 2 0 0 Z " fill="#424858" transform="translate(121,230)"/>
<path d="M0 0 C5.09156621 3.39437747 9.2147178 6.7370659 13.625 10.875 C14.27984375 11.47441406 14.9346875 12.07382812 15.609375 12.69140625 C16.24617188 13.28566406 16.88296875 13.87992187 17.5390625 14.4921875 C18.10834473 15.02183105 18.67762695 15.55147461 19.26416016 16.09716797 C21.45784621 18.50189217 23.19445666 21.29168499 25 24 C16.75 24 8.5 24 0 24 C0 16.08 0 8.16 0 0 Z " fill="#5E6394" transform="translate(154,258)"/>
<path d="M0 0 C5.82371483 0.07371791 11.47330582 0.16372914 17.20703125 1.23046875 C17.20703125 2.22046875 17.20703125 3.21046875 17.20703125 4.23046875 C5.34662485 6.11400459 -6.24428267 6.51346608 -18.23730469 6.4362793 C-21.15699079 6.41803734 -24.07635649 6.41577052 -26.99609375 6.41601562 C-35.9489702 6.39953052 -44.88312087 6.26414986 -53.82421875 5.78515625 C-54.90429703 5.72819832 -54.90429703 5.72819832 -56.00619507 5.67008972 C-61.42071969 5.34280895 -66.52664907 4.50457835 -71.79296875 3.23046875 C-67.96269658 0.67695397 -65.00993437 1.07232434 -60.59375 1.25390625 C-59.77405228 1.27906815 -58.95435455 1.30423004 -58.1098175 1.33015442 C-56.35222421 1.38494556 -54.59476743 1.44426646 -52.83746338 1.50765991 C-48.28554692 1.67062424 -43.7325738 1.7971884 -39.1796875 1.9296875 C-37.83384583 1.97030052 -37.83384583 1.97030052 -36.46081543 2.01173401 C-29.1130309 2.23134049 -21.76930495 2.38187286 -14.41796875 2.41796875 C-12.96064331 2.43706299 -12.96064331 2.43706299 -11.47387695 2.45654297 C-10.60206787 2.45799316 -9.73025879 2.45944336 -8.83203125 2.4609375 C-7.72142334 2.46710083 -7.72142334 2.46710083 -6.58837891 2.47338867 C-3.62287043 2.07215384 -3.26950789 0.26979156 0 0 Z " fill="#D5E1E7" transform="translate(95.79296875,343.76953125)"/>
<path d="M0 0 C0.495 4.95 0.495 4.95 1 10 C0.05125 10.309375 -0.8975 10.61875 -1.875 10.9375 C-5.09465493 12.58888033 -5.09465493 12.58888033 -5.59765625 14.921875 C-5.70980469 15.66953125 -5.82195312 16.4171875 -5.9375 17.1875 C-6.87874042 22.90949621 -9.67344134 26.25372928 -14 30 C-17.3400651 32.20596432 -20.89002145 33.58375804 -24.625 34.984375 C-25.511875 35.31953125 -26.39875 35.6546875 -27.3125 36 C-28.13363281 36.28875 -28.95476562 36.5775 -29.80078125 36.875 C-32.36052552 38.18442513 -33.45902619 39.60625427 -35 42 C-34.44289057 38.65734341 -33.85275582 35.85968833 -32 33 C-29.828125 31.98046875 -29.828125 31.98046875 -27.25 31.1875 C-20.64732452 28.7079341 -17.66531034 25.41411814 -14.59765625 19.125 C-12.72706708 14.78740192 -11.05387423 10.5606412 -10.0625 5.9375 C-9 3 -9 3 -6.0625 1.0625 C-3 0 -3 0 0 0 Z " fill="#6BAA8D" transform="translate(120,233)"/>
<path d="M0 0 C7.92 0 15.84 0 24 0 C19.79503825 7.00826958 15.5025165 12.99806423 9 18 C6.91980317 20.26840512 4.94763616 22.61732484 3 25 C1.35 24.67 -0.3 24.34 -2 24 C-1.360625 23.21625 -0.72125 22.4325 -0.0625 21.625 C3.46599189 17.13419214 3.5634717 13.58776101 3 8 C1.61785878 4.64838754 1.61785878 4.64838754 0 2 C0 1.34 0 0.68 0 0 Z " fill="#5D6293" transform="translate(196,212)"/>
<path d="M0 0 C0.33 0 0.66 0 1 0 C1.33 3.63 1.66 7.26 2 11 C3.65 11.33 5.3 11.66 7 12 C8.875 13.5 8.875 13.5 10 16 C9.94210593 19.05259653 9.53262279 21.99677754 9 25 C9.78375 25.309375 10.5675 25.61875 11.375 25.9375 C14 27 14 27 16 28 C16.40729228 30.32156597 16.74438677 32.6568787 17 35 C11.41866434 34.57717154 8.4428803 32.52749827 4.25 29.125 C3.38568359 28.45404297 3.38568359 28.45404297 2.50390625 27.76953125 C-0.16888428 25.65746601 -2.09643303 23.85535046 -4 21 C-3.43396226 14.43396226 -3.43396226 14.43396226 -2 13 C-1.79111292 11.00396794 -1.63224523 9.00257059 -1.5 7 C-1.11111111 1.11111111 -1.11111111 1.11111111 0 0 Z " fill="#8E96F8" transform="translate(135,200)"/>
<path d="M0 0 C3.40518414 3.02037655 5.01704748 5.78434695 6.6875 10 C7.10386719 11.03125 7.52023438 12.0625 7.94921875 13.125 C11.56026585 23.00503965 11.43067099 34.54369394 7.16796875 44.1796875 C6 46 6 46 3 48 C3.165 47.2575 3.33 46.515 3.5 45.75 C4.92750783 35.04369131 4.02521182 25.57190196 -1.1171875 15.8984375 C-3.12511511 11.58050467 -2.25590227 6.89565794 -1 2.5 C-0.67 1.675 -0.34 0.85 0 0 Z " fill="#69AB8A" transform="translate(77,173)"/>
<path d="M0 0 C1.65322266 0.01740234 1.65322266 0.01740234 3.33984375 0.03515625 C4.99693359 0.04869141 4.99693359 0.04869141 6.6875 0.0625 C7.54214844 0.07410156 8.39679688 0.08570313 9.27734375 0.09765625 C5.96565544 18.40934456 5.96565544 18.40934456 3.27734375 21.09765625 C1.25770176 21.17009678 -0.76432749 21.18142813 -2.78515625 21.16015625 C-3.88988281 21.15113281 -4.99460938 21.14210937 -6.1328125 21.1328125 C-7.41478516 21.11541016 -7.41478516 21.11541016 -8.72265625 21.09765625 C-6.7827145 0.24328244 -6.7827145 0.24328244 0 0 Z " fill="#F0EBE3" transform="translate(231.72265625,192.90234375)"/>
<path d="M0 0 C2.375 1.375 2.375 1.375 4.375 4.375 C4.375 5.365 4.375 6.355 4.375 7.375 C5.303125 7.478125 6.23125 7.58125 7.1875 7.6875 C11.57972441 8.63484252 11.57972441 8.63484252 13.375 11.375 C14.0625 14.5625 14.0625 14.5625 14.375 17.375 C9.625 16.5 9.625 16.5 7.375 15.375 C0.85049077 14.77035798 -5.29200634 15.89421651 -11.625 17.375 C-12.23828125 15.06640625 -12.23828125 15.06640625 -12.625 12.375 C-10.8125 9.3125 -10.8125 9.3125 -8.625 6.375 C-8.295 5.653125 -7.965 4.93125 -7.625 4.1875 C-5.71477367 0.72521477 -3.98402169 -0.94857659 0 0 Z " fill="#424755" transform="translate(173.625,213.625)"/>
<path d="M0 0 C8.25 0 16.5 0 25 0 C25 8.91 25 17.82 25 27 C16.75 27 8.5 27 0 27 C0 18.09 0 9.18 0 0 Z M3 3 C3 10.26 3 17.52 3 25 C9.27 25 15.54 25 22 25 C22 17.74 22 10.48 22 3 C15.73 3 9.46 3 3 3 Z " fill="#F7D8AE" transform="translate(284,285)"/>
<path d="M0 0 C1.19433655 -0.00637985 2.3886731 -0.0127597 3.61920166 -0.01933289 C4.8943866 -0.02044571 6.16957153 -0.02155853 7.48339844 -0.02270508 C8.8019281 -0.02603348 10.12045776 -0.02936188 11.47894287 -0.03279114 C14.25940776 -0.03875695 17.03984167 -0.04063338 19.8203125 -0.04003906 C23.38705555 -0.03993693 26.95360179 -0.05365232 30.520298 -0.07081127 C33.92466817 -0.08457108 37.32900077 -0.08401852 40.73339844 -0.08520508 C42.0166803 -0.09239059 43.29996216 -0.09957611 44.62213135 -0.10697937 C46.39472321 -0.10236443 46.39472321 -0.10236443 48.203125 -0.09765625 C49.76815765 -0.09979378 49.76815765 -0.09979378 51.36480713 -0.10197449 C53.84277344 0.14526367 53.84277344 0.14526367 55.84277344 2.14526367 C51.49790784 6.49012927 37.0010282 4.27220427 31.00888062 4.28314209 C29.10609796 4.28236296 27.20331529 4.27983409 25.30053711 4.27563477 C22.41547373 4.27028259 19.53056642 4.27560118 16.64550781 4.28198242 C-5.65296783 4.29303876 -5.65296783 4.29303876 -11.15722656 3.14526367 C-11.48722656 2.48526367 -11.81722656 1.82526367 -12.15722656 1.14526367 C-8.05480107 0.37515529 -4.17185581 0.01519513 0 0 Z " fill="#F0EDE5" transform="translate(296.1572265625,352.854736328125)"/>
<path d="M0 0 C31.68 0 63.36 0 96 0 C96.99 4.455 96.99 4.455 98 9 C98.64763635 11.33868682 99.30723303 13.6742823 100 16 C98.68 15.67 97.36 15.34 96 15 C94.02 10.71 92.04 6.42 90 2 C62.28 1.67 34.56 1.34 6 1 C5.34 2.98 4.68 4.96 4 7 C3.31500969 8.63497688 2.60853632 10.2612201 1.875 11.875 C1.52179688 12.65617187 1.16859375 13.43734375 0.8046875 14.2421875 C0.53914062 14.82226562 0.27359375 15.40234375 0 16 C-0.99 16 -1.98 16 -3 16 C-2.54302392 12.34419138 -1.73564328 9.15471468 -0.375 5.75 C0.07875 4.5125 0.5325 3.275 1 2 C0.67 1.34 0.34 0.68 0 0 Z " fill="#5B6678" transform="translate(145,332)"/>
<path d="M0 0 C1.60553374 0.08039153 3.21065374 0.1772597 4.8125 0.3125 C4.83934679 2.95840014 4.85926357 5.60403096 4.875 8.25 C4.88337891 9.00474609 4.89175781 9.75949219 4.90039062 10.53710938 C4.90902441 12.46244313 4.86474333 14.38785581 4.8125 16.3125 C3.8125 17.3125 3.8125 17.3125 0 17.625 C-2.97367685 17.56627389 -4.06501147 17.38599312 -6.6875 15.8125 C-8.78669363 12.31384395 -8.78496687 9.23095153 -8.1875 5.3125 C-6.73508476 0.3327906 -4.83289086 0.02050732 0 0 Z " fill="#F7D8AD" transform="translate(326.1875,295.6875)"/>
<path d="M0 0 C3.73218256 1.62230263 6.54960765 3.99513353 9.6875 6.5625 C31.8401612 23.98472774 57.54178722 29.66176339 85.125 30.5625 C86.36765625 30.60568359 87.6103125 30.64886719 88.890625 30.69335938 C91.92699671 30.79846455 94.96343665 30.90061343 98 31 C98 31.66 98 32.32 98 33 C64.57193978 33.94183958 31.93061966 28.93286017 6 6 C4.79390963 5.01807188 3.58589989 4.03849091 2.375 3.0625 C1.59125 2.381875 0.8075 1.70125 0 1 C0 0.67 0 0.34 0 0 Z " fill="#A1D1FE" transform="translate(277,426)"/>
<path d="M0 0 C0.99 0.33 1.98 0.66 3 1 C3.33 3.64 3.66 6.28 4 9 C4.66 7.68 5.32 6.36 6 5 C6 6.32 6 7.64 6 9 C6.99 9 7.98 9 9 9 C9 9.66 9 10.32 9 11 C7.68 11 6.36 11 5 11 C4.93941406 11.80824219 4.87882812 12.61648437 4.81640625 13.44921875 C4.73261719 14.51785156 4.64882813 15.58648437 4.5625 16.6875 C4.48128906 17.74324219 4.40007812 18.79898438 4.31640625 19.88671875 C4.03548319 22.65086297 3.59843148 25.28945741 3 28 C3.66 28.33 4.32 28.66 5 29 C1.04 29 -2.92 29 -7 29 C-7 28.67 -7 28.34 -7 28 C-4.69 28 -2.38 28 0 28 C-0.33 27.34 -0.66 26.68 -1 26 C-3.02463255 25.34786708 -3.02463255 25.34786708 -5 25 C-5 22.36 -5 19.72 -5 17 C-3.35 17 -1.7 17 0 17 C-1.98 16.34 -3.96 15.68 -6 15 C-5.360625 14.855625 -4.72125 14.71125 -4.0625 14.5625 C-2.02454854 14.18992819 -2.02454854 14.18992819 -1 13 C-0.76518307 10.81707226 -0.58636677 8.62796826 -0.4375 6.4375 C-0.35371094 5.23996094 -0.26992188 4.04242188 -0.18359375 2.80859375 C-0.12300781 1.88175781 -0.06242187 0.95492187 0 0 Z " fill="#EAE2D3" transform="translate(339,235)"/>
<path d="M0 0 C0.33 0 0.66 0 1 0 C2.7538308 18.40356226 3.26062021 36.52804176 3 55 C3.66 54.34 4.32 53.68 5 53 C4.44271087 56.34373475 3.64826111 59.03312999 2 62 C1.01 62 0.02 62 -1 62 C-2.98 54.08 -4.96 46.16 -7 38 C-6.01 37.505 -6.01 37.505 -5 37 C-3.35 42.61 -1.7 48.22 0 54 C0.02324061 49.16595224 0.04306484 44.33210648 0.05493164 39.49804688 C0.05989045 37.86132136 0.06665953 36.2246001 0.07543945 34.58789062 C0.12713446 24.68677688 -0.08656865 14.89954731 -0.88110352 5.02734375 C-1 2 -1 2 0 0 Z " fill="#94C5BD" transform="translate(78,226)"/>
<path d="M0 0 C0.33 0 0.66 0 1 0 C1 1.65 1 3.3 1 5 C1.99 5 2.98 5 4 5 C2.51194289 10.80342274 -0.59097555 15.17590879 -4 20 C-6.64 18.35 -9.28 16.7 -12 15 C-11.34 14.67 -10.68 14.34 -10 14 C-9.33093418 12.66786895 -8.66482568 11.33425224 -8 10 C-6.68271633 8.22207112 -5.32562412 6.47318856 -3.9375 4.75 C-3.22464844 3.85796875 -2.51179687 2.9659375 -1.77734375 2.046875 C-0.89755859 1.03367188 -0.89755859 1.03367188 0 0 Z " fill="#F7B9A0" transform="translate(220,212)"/>
<path d="M0 0 C3.72662729 2.40160425 6.1783734 4.85727632 7.5625 9.125 C7.68625 9.9603125 7.68625 9.9603125 7.8125 10.8125 C6.4925 10.1525 5.1725 9.4925 3.8125 8.8125 C3.8125 8.1525 3.8125 7.4925 3.8125 6.8125 C3.02875 6.668125 2.245 6.52375 1.4375 6.375 C-1.1875 5.8125 -1.1875 5.8125 -3.1875 4.8125 C-9.82570468 3.94879307 -14.19451147 4.73570518 -19.59375 8.71875 C-21.1875 9.8125 -21.1875 9.8125 -23.1875 9.8125 C-21.77877675 6.44762219 -20.19094528 4.75540543 -17.25 2.625 C-16.56035156 2.11582031 -15.87070313 1.60664063 -15.16015625 1.08203125 C-10.3096572 -2.03957705 -5.30077113 -1.97479709 0 0 Z " fill="#525A6C" transform="translate(160.1875,187.1875)"/>
<path d="M0 0 C4.62 0 9.24 0 14 0 C13.16583712 4.17081442 12.21232487 7.03530861 10.4375 10.8125 C9.98246094 11.78832031 9.52742188 12.76414062 9.05859375 13.76953125 C8.70925781 14.50558594 8.35992187 15.24164063 8 16 C3.25865828 12.14852886 2.01744104 5.5070688 0 0 Z " fill="#F2D8B6" transform="translate(80,323)"/>
<path d="M0 0 C0.33 0 0.66 0 1 0 C1.01030746 0.90709213 1.02061493 1.81418427 1.03123474 2.74876404 C1.12948746 11.32553223 1.23203959 19.90223617 1.33933926 28.47889614 C1.39434457 32.8875183 1.44772685 37.2961473 1.49731445 41.70483398 C1.54529069 45.96482228 1.59764196 50.224737 1.65294075 54.48463631 C1.67321472 56.10438246 1.6919509 57.72414867 1.70907402 59.3439312 C1.80654786 74.87156648 1.80654786 74.87156648 5 90 C3.35 90 1.7 90 0 90 C0 60.3 0 30.6 0 0 Z " fill="#CEDDE7" transform="translate(55,248)"/>
<path d="M0 0 C2 1.375 2 1.375 4 3 C4 3.66 4 4.32 4 5 C4.66 5 5.32 5 6 5 C6.34611328 6.37671875 6.34611328 6.37671875 6.69921875 7.78125 C9.38439172 17.88514196 12.14465053 25.28525563 20.64453125 31.7734375 C21.09183594 32.17820312 21.53914063 32.58296875 22 33 C22 33.66 22 34.32 22 35 C12.43505325 30.86673116 5.0347675 20.26930246 1.125 10.875 C-0.15668497 7.14237359 -0.24509518 3.9215229 0 0 Z " fill="#6DAC8C" transform="translate(49,228)"/>
<path d="M0 0 C0.33 0 0.66 0 1 0 C1.01030746 0.7052179 1.02061493 1.41043579 1.03123474 2.13702393 C1.12926898 8.78755443 1.23179179 15.43799888 1.33933926 22.08838272 C1.39447071 25.50729472 1.44787477 28.92621542 1.49731445 32.34521484 C1.55424676 36.27710613 1.61872237 40.20885636 1.68359375 44.140625 C1.70030624 45.36678528 1.71701874 46.59294556 1.73423767 47.85626221 C1.75418289 48.99714294 1.77412811 50.13802368 1.79467773 51.31347656 C1.81022202 52.31719299 1.8257663 53.32090942 1.84178162 54.3550415 C1.9835731 56.72538929 2.37310433 58.72248787 3 61 C3.06548492 62.58211573 3.08578381 64.16670081 3.0625 65.75 C3.05347656 66.54921875 3.04445312 67.3484375 3.03515625 68.171875 C3.01775391 69.07679688 3.01775391 69.07679688 3 70 C2.01 69.34 1.02 68.68 0 68 C-0.36076355 65.177948 -0.36076355 65.177948 -0.34057617 61.53076172 C-0.34101425 60.86722687 -0.34145233 60.20369202 -0.34190369 59.52005005 C-0.33981068 57.322965 -0.31645699 55.12663951 -0.29296875 52.9296875 C-0.28737458 51.4079734 -0.28310364 49.8862539 -0.28010559 48.36453247 C-0.26864261 44.35635501 -0.2391633 40.34850288 -0.20599365 36.3404541 C-0.17532384 32.25175376 -0.16160689 28.16300093 -0.14648438 24.07421875 C-0.11429467 16.04932975 -0.06308116 8.02470532 0 0 Z " fill="#E8E1CF" transform="translate(51,162)"/>
<path d="M0 0 C3.96 0.33 7.92 0.66 12 1 C7.30233025 6.66129431 2.25276628 11.85228904 -3 17 C-4 14 -4 14 -2.56640625 10.86328125 C-1.90864027 9.6739872 -1.24022185 8.49053629 -0.5625 7.3125 C-0.22412109 6.70599609 0.11425781 6.09949219 0.46289062 5.47460938 C1.29957915 3.9779975 2.14862831 2.48830811 3 1 C2.01 0.67 1.02 0.34 0 0 Z " fill="#646593" transform="translate(221,216)"/>
<path d="M0 0 C0.84175781 0.13277344 1.68351562 0.26554687 2.55078125 0.40234375 C15.98286506 2.31324249 29.45054117 2.6342003 43 3 C43 3.66 43 4.32 43 5 C12.87347956 5.61916858 12.87347956 5.61916858 -1 2 C-0.67 1.34 -0.34 0.68 0 0 Z " fill="#AED8FE" transform="translate(332,454)"/>
<path d="M0 0 C5.61 0 11.22 0 17 0 C16.67 1.98 16.34 3.96 16 6 C15.34 6 14.68 6 14 6 C13.67 6.99 13.34 7.98 13 9 C12.06576355 5.98968256 11.95550089 5.13349732 13 2 C7.06 2.495 7.06 2.495 1 3 C-0.98 9.27 -2.96 15.54 -5 22 C-5.66 21.67 -6.32 21.34 -7 21 C-4.69 14.07 -2.38 7.14 0 0 Z " fill="#636A79" transform="translate(228,191)"/>
<path d="M0 0 C2.24064081 1.00849169 4.15109908 1.95184208 6.08984375 3.46875 C7.08984375 7.21875 7.08984375 7.21875 7.08984375 10.46875 C0.62485926 10.30298117 -3.21451427 6.46526306 -7.91015625 2.46875 C-1.91015625 -0.53125 -1.91015625 -0.53125 0 0 Z " fill="#484D5A" transform="translate(144.91015625,224.53125)"/>
<path d="M0 0 C8.58 0 17.16 0 26 0 C26.33 0.99 26.66 1.98 27 3 C17.76 3 8.52 3 -1 3 C-0.67 2.01 -0.34 1.02 0 0 Z " fill="#EFD7B5" transform="translate(66,288)"/>
<path d="M0 0 C0.33 0 0.66 0 1 0 C1 8.25 1 16.5 1 25 C0.67 25 0.34 25 0 25 C0 20.71 0 16.42 0 12 C-3.3 12 -6.6 12 -10 12 C-9.0925 10.948125 -8.185 9.89625 -7.25 8.8125 C-5.34272159 6.59410526 -3.49820553 4.36258541 -1.6875 2.0625 C-1.130625 1.381875 -0.57375 0.70125 0 0 Z " fill="#61689D" transform="translate(232,270)"/>
<path d="M0 0 C2.9555377 2.75170751 5.11563315 5.41970299 7 9 C7 9.66 7 10.32 7 11 C2.71 11 -1.58 11 -6 11 C-1.125 1.125 -1.125 1.125 0 0 Z " fill="#F1D7B5" transform="translate(68,303)"/>
<path d="M0 0 C3.49999654 3.17907995 4.98593331 6.76351489 7 11 C2.71 11 -1.58 11 -6 11 C-1.125 1.125 -1.125 1.125 0 0 Z " fill="#F1D7B5" transform="translate(87,294)"/>
<path d="M0 0 C2.24808254 3.37212381 3.05160443 6.2874961 4.125 10.1875 C4.30675781 10.84169922 4.48851563 11.49589844 4.67578125 12.16992188 C5.12199044 13.77862343 5.56164215 15.38914131 6 17 C6.33 13.7 6.66 10.4 7 7 C7.33 7 7.66 7 8 7 C8.33 10.63 8.66 14.26 9 18 C9.66 17.34 10.32 16.68 11 16 C10.44271087 19.34373475 9.64826111 22.03312999 8 25 C7.01 25 6.02 25 5 25 C3.96973734 21.02321277 2.9523748 17.04323953 1.9375 13.0625 C1.64294922 11.92619141 1.34839844 10.78988281 1.04492188 9.61914062 C0.77099609 8.53955078 0.49707031 7.45996094 0.21484375 6.34765625 C-0.04176025 5.34742432 -0.29836426 4.34719238 -0.56274414 3.31665039 C-0.70703857 2.55215576 -0.85133301 1.78766113 -1 1 C-0.67 0.67 -0.34 0.34 0 0 Z " fill="#8FC2B4" transform="translate(72,263)"/>
<path d="M0 0 C0 2.97 0 5.94 0 9 C-0.33 9 -0.66 9 -1 9 C-1.33 6.69 -1.66 4.38 -2 2 C-2.33 5.96 -2.66 9.92 -3 14 C-3.33 14 -3.66 14 -4 14 C-4 12.02 -4 10.04 -4 8 C-6.31 8.33 -8.62 8.66 -11 9 C-10.51780822 3.57534247 -10.51780822 3.57534247 -8.3125 1.125 C-5.40422845 -0.28983481 -3.19384754 -0.21776233 0 0 Z " fill="#495064" transform="translate(137,199)"/>
<path d="M0 0 C0.33 0.99 0.66 1.98 1 3 C1.66 3 2.32 3 3 3 C3.33 3.99 3.66 4.98 4 6 C4.99 6 5.98 6 7 6 C7.33 5.34 7.66 4.68 8 4 C8 4.66 8 5.32 8 6 C8.66 6 9.32 6 10 6 C10 7.98 10 9.96 10 12 C6.25297715 13.03366148 3.77200794 13.25733598 0 12 C-0.144375 10.88625 -0.28875 9.7725 -0.4375 8.625 C-0.78372035 5.17857953 -0.78372035 5.17857953 -2 3 C-1.34 3 -0.68 3 0 3 C0 2.01 0 1.02 0 0 Z " fill="#D7D8D1" transform="translate(322,282)"/>
<path d="M0 0 C1.32 0 2.64 0 4 0 C2.40109514 5.19644079 0.25861997 10.06612142 -2 15 C-2.99 15 -3.98 15 -5 15 C-4.43174347 9.45949887 -2.37113483 4.96284034 0 0 Z " fill="#484D5B" transform="translate(147,333)"/>
<path d="M0 0 C1.86328125 0.19921875 1.86328125 0.19921875 4 1 C5.23046875 3.14453125 5.23046875 3.14453125 6.1875 5.8125 C6.51105469 6.68519531 6.83460938 7.55789063 7.16796875 8.45703125 C7.87821558 10.62778564 8.48671197 12.77575186 9 15 C7.171875 14.8359375 7.171875 14.8359375 5 14 C3.515625 11.6015625 3.515625 11.6015625 2.25 8.625 C1.82203125 7.64789063 1.3940625 6.67078125 0.953125 5.6640625 C0 3 0 3 0 0 Z " fill="#484D5C" transform="translate(236,333)"/>
<path d="M0 0 C0.33 0 0.66 0 1 0 C1.33 2.64 1.66 5.28 2 8 C2.66 6.68 3.32 5.36 4 4 C4 5.32 4 6.64 4 8 C4.99 8 5.98 8 7 8 C7 8.66 7 9.32 7 10 C5.68 10 4.36 10 3 10 C2.67 13.96 2.34 17.92 2 22 C1.34 22 0.68 22 0 22 C-1.0773541 14.50824535 -0.8388516 7.51094816 0 0 Z " fill="#D4DEE3" transform="translate(341,236)"/>
<path d="M0 0 C3.53571429 0.53571429 3.53571429 0.53571429 5 2 C5.1875 4.4375 5.1875 4.4375 5 7 C4.34 7.66 3.68 8.32 3 9 C0.06546739 8.63318342 -0.86437246 8.13562754 -3 6 C-2.63318342 3.06546739 -2.13562754 2.13562754 0 0 Z " fill="#CFE6FC" transform="translate(199,165)"/>
<path d="M0 0 C4.31392226 0.4793247 6.16569547 1.7457985 9 5 C2.25 9 2.25 9 0 9 C0 6.03 0 3.06 0 0 Z " fill="#F2D8B7" transform="translate(69,333)"/>
<path d="M0 0 C0.33 0.66 0.66 1.32 1 2 C1.99 2.33 2.98 2.66 4 3 C4.66 3.66 5.32 4.32 6 5 C6.99 4.01 7.98 3.02 9 2 C10 5 10 5 9.22265625 7.04296875 C8.83980469 7.75066406 8.45695312 8.45835937 8.0625 9.1875 C7.68222656 9.90292969 7.30195312 10.61835938 6.91015625 11.35546875 C6.60980469 11.89816406 6.30945313 12.44085938 6 13 C2.81554 10.07422162 1.51925359 7.05134291 0 3 C0 2.01 0 1.02 0 0 Z " fill="#F0D6B4" transform="translate(82,326)"/>
<path d="M0 0 C0.66 0.66 1.32 1.32 2 2 C0.9375 4 0.9375 4 -1 6 C-4.6875 6.25 -4.6875 6.25 -8 6 C-8.33 4.35 -8.66 2.7 -9 1 C-7.54364629 0.77825067 -6.08477044 0.57301302 -4.625 0.375 C-3.40683594 0.20097656 -3.40683594 0.20097656 -2.1640625 0.0234375 C-1.44992188 0.01570312 -0.73578125 0.00796875 0 0 Z " fill="#FABAA0" transform="translate(161,230)"/>
<path d="M0 0 C0.66 0.33 1.32 0.66 2 1 C-4.6 7.6 -11.2 14.2 -18 21 C-18.33 20.34 -18.66 19.68 -19 19 C-18.0625 16.375 -18.0625 16.375 -17 14 C-16.01 14 -15.02 14 -14 14 C-12.29088974 12.70602736 -12.29088974 12.70602736 -10.64453125 10.9375 C-9.71157227 9.99003906 -9.71157227 9.99003906 -8.75976562 9.0234375 C-8.11716797 8.35570312 -7.47457031 7.68796875 -6.8125 7 C-6.15830078 6.33226562 -5.50410156 5.66453125 -4.83007812 4.9765625 C-3.21313865 3.32421559 -1.60359509 1.66528399 0 0 Z " fill="#7594D2" transform="translate(233,217)"/>
<path d="M0 0 C3 1 3 1 4 3 C4.45753899 8.37608319 4.45753899 8.37608319 2.625 10.875 C1 12 1 12 -1 12 C-0.67 8.04 -0.34 4.08 0 0 Z " fill="#8991F1" transform="translate(168,204)"/>
<path d="M0 0 C2.97 0.495 2.97 0.495 6 1 C5.67 2.65 5.34 4.3 5 6 C3.125 6.625 3.125 6.625 1 7 C0.34 6.34 -0.32 5.68 -1 5 C-0.625 2.375 -0.625 2.375 0 0 Z " fill="#F4DAB8" transform="translate(85,310)"/>
<path d="M0 0 C4.455 1.98 4.455 1.98 9 4 C8.34 5.32 7.68 6.64 7 8 C6.01 8 5.02 8 4 8 C0 2.74285714 0 2.74285714 0 0 Z " fill="#686D9D" transform="translate(191,247)"/>
<path d="M0 0 C4.20763224 1.5027258 5.8027758 4.23332995 8 8 C8 8.66 8 9.32 8 10 C6.0625 9.25 6.0625 9.25 4 8 C3.87625 7.34 3.7525 6.68 3.625 6 C3.315625 5.01 3.315625 5.01 3 4 C0.00384054 2.6954344 0.00384054 2.6954344 -3 2 C-2.01 1.34 -1.02 0.68 0 0 Z " fill="#6D7483" transform="translate(160,188)"/>
<path d="M0 0 C0.66 0 1.32 0 2 0 C1.94014838 2.62748631 1.85323776 5.24916995 1.75 7.875 C1.73582031 8.62136719 1.72164063 9.36773437 1.70703125 10.13671875 C1.609375 12.3046875 1.609375 12.3046875 1 16 C-1.046875 17.5078125 -1.046875 17.5078125 -3 18 C-3 16.35 -3 14.7 -3 13 C-2.01 13 -1.02 13 0 13 C0 8.71 0 4.42 0 0 Z " fill="#CCDDE9" transform="translate(338,232)"/>
<path d="M0 0 C0.66 0.33 1.32 0.66 2 1 C1.67 1.99 1.34 2.98 1 4 C-2.3 4.33 -5.6 4.66 -9 5 C-8.67 3.68 -8.34 2.36 -8 1 C-7.05125 1.020625 -6.1025 1.04125 -5.125 1.0625 C-2.09333717 1.22551826 -2.09333717 1.22551826 0 0 Z " fill="#DE8875" transform="translate(160,227)"/>
<path d="M0 0 C1.485 0.99 1.485 0.99 3 2 C3.22107787 4.7885289 3.28107535 7.34653181 3.1875 10.125 C3.17396484 10.87910156 3.16042969 11.63320312 3.14648438 12.41015625 C3.11109985 14.27374127 3.05729167 16.13695978 3 18 C2.34 18 1.68 18 1 18 C0.67 12.06 0.34 6.12 0 0 Z " fill="#ABD3E8" transform="translate(79,234)"/>
<path d="M0 0 C1.83836919 3.67673838 2.93651813 7.04992447 4 11 C2.68 11 1.36 11 0 11 C0 7.37 0 3.74 0 0 Z " fill="#B9D9F7" transform="translate(56,327)"/>
<path d="M0 0 C1.98 0 3.96 0 6 0 C5.25 4.75 5.25 4.75 3 7 C2.01 4.69 1.02 2.38 0 0 Z " fill="#FDE5C5" transform="translate(84,326)"/>
<path d="M0 0 C1.32 0.66 2.64 1.32 4 2 C1.03 4.475 1.03 4.475 -2 7 C-2.6875 5.1875 -2.6875 5.1875 -3 3 C-1.5625 1.25 -1.5625 1.25 0 0 Z " fill="#749CE1" transform="translate(200,252)"/>
<path d="M0 0 C1 4 1 4 -0.9375 7.25 C-1.618125 8.1575 -2.29875 9.065 -3 10 C-3.99 9.67 -4.98 9.34 -6 9 C-4.02 6.03 -2.04 3.06 0 0 Z " fill="#E7A594" transform="translate(291,261)"/>
<path d="M0 0 C0.99 0 1.98 0 3 0 C3.33 1.32 3.66 2.64 4 4 C2.68 4.33 1.36 4.66 0 5 C-0.5625 3.0625 -0.5625 3.0625 -1 1 C-0.67 0.67 -0.34 0.34 0 0 Z " fill="#F0D6B4" transform="translate(66,323)"/>
<path d="M0 0 C0.6875 1.8125 0.6875 1.8125 1 4 C-0.4375 5.75 -0.4375 5.75 -2 7 C-2.66 5.35 -3.32 3.7 -4 2 C-2.68 1.34 -1.36 0.68 0 0 Z " fill="#D5DEE2" transform="translate(338,253)"/>
<path d="M0 0 C0 1.98 0 3.96 0 6 C-0.33 5.34 -0.66 4.68 -1 4 C-2.32 4 -3.64 4 -5 4 C-4.67 3.01 -4.34 2.02 -4 1 C-1 0 -1 0 0 0 Z " fill="#E0DBCE" transform="translate(332,288)"/>
</svg>
