<svg width="171" height="200" viewBox="0 0 171 200" fill="none" xmlns="http://www.w3.org/2000/svg">
<path d="M82.9084 0.972534L90.5599 16.5026L26.3092 122.935L11.6051 130.582L82.9084 0.972534Z" fill="#0D0D0D"/>
<path d="M71.0494 83.1376L89.9179 60.9712L116.677 56.537L155.246 51.3605L170.597 49.4058L121.445 66.6377L71.0494 83.1376Z" fill="#0D0D0D"/>
<path d="M0.403381 148.706L19.5265 117.14L52.1326 106.185L99.3746 91.916L118.2 86.3693L60.1542 117.87L0.403381 148.706Z" fill="#0D0D0D"/>
<path d="M156.085 101.164L155.637 82.6248L125.711 98.8123L83.52 123.361L66.8092 133.238L111.012 116.689L156.085 101.164Z" fill="#0D0D0D"/>
<path d="M82.4473 27.1854L90.4349 16.2359L108.724 52.1435L102.858 52.6227L98.6649 52.966L94.1945 53.3307L82.4473 27.1854Z" fill="#0D0D0D"/>
<path d="M28.0919 198.48H5.51355V159.376H28.0919V166.169H13.8068V174.767H27.1008V181.56H13.8068V191.637H28.0919V198.48ZM36.2542 198.48V159.376H44.5499V191.634H60.4821V198.48H36.2542ZM90.4469 187.636C90.4469 191.105 89.1833 193.88 86.6562 195.96C84.1655 198.005 80.6128 199.028 75.9983 199.027C71.8594 199.027 68.1602 198.242 64.9005 196.672V188.95C66.7685 189.753 68.6914 190.502 70.6693 191.196C72.6826 191.853 74.678 192.181 76.6555 192.181C78.7064 192.181 80.1531 191.798 80.9955 191.031C81.8745 190.228 82.3141 189.224 82.3143 188.019C82.3143 187.033 81.9663 186.193 81.2703 185.5C80.6112 184.806 79.7139 184.167 78.5785 183.583C77.4429 182.962 76.1426 182.305 74.6776 181.611C73.7621 181.173 72.7733 180.662 71.7112 180.078C70.6142 179.432 69.5837 178.68 68.6344 177.832C67.6824 176.92 66.895 175.824 66.2722 174.546C65.6495 173.268 65.3381 171.735 65.3381 169.946C65.3381 166.441 66.5285 163.721 68.9092 161.786C71.2898 159.814 74.5315 158.828 78.6343 158.828C80.6852 158.828 82.6261 159.066 84.4569 159.54C86.2878 160.015 88.2287 160.69 90.2796 161.567L87.5885 168.03C85.794 167.299 84.1825 166.733 82.7541 166.331C81.3239 165.93 79.8448 165.727 78.3589 165.729C76.7841 165.729 75.5755 166.094 74.7331 166.825C73.8906 167.555 73.4694 168.504 73.4694 169.672C73.4694 171.06 74.0921 172.155 75.3373 172.958C76.5826 173.762 78.4322 174.747 80.8862 175.916C82.9006 176.865 84.6041 177.851 85.9965 178.873C87.4241 179.896 88.5226 181.1 89.2919 182.486C90.0613 183.873 90.4457 185.589 90.4453 187.636H90.4469ZM120.706 187.636C120.706 191.105 119.443 193.88 116.915 195.96C114.425 198.005 110.872 199.028 106.257 199.027C102.119 199.027 98.4197 198.242 95.1598 196.672V188.95C97.0276 189.753 98.9504 190.502 100.928 191.196C102.941 191.853 104.937 192.181 106.915 192.181C108.966 192.181 110.412 191.798 111.255 191.031C112.134 190.228 112.573 189.224 112.573 188.019C112.573 187.033 112.225 186.193 111.53 185.5C110.87 184.806 109.973 184.167 108.838 183.583C107.702 182.962 106.402 182.305 104.937 181.611C104.021 181.173 103.033 180.662 101.97 180.078C100.874 179.432 99.843 178.68 98.8938 177.832C97.9417 176.92 97.1543 175.824 96.5316 174.546C95.9088 173.268 95.5975 171.735 95.5975 169.946C95.5975 166.441 96.7878 163.721 99.1685 161.786C101.549 159.814 104.791 158.828 108.894 158.828C110.945 158.828 112.885 159.066 114.716 159.54C116.547 160.015 118.488 160.69 120.539 161.567L117.848 168.03C116.053 167.299 114.442 166.733 113.013 166.331C111.583 165.93 110.104 165.727 108.618 165.729C107.043 165.729 105.835 166.094 104.992 166.824C104.15 167.554 103.729 168.504 103.729 169.672C103.729 171.06 104.351 172.155 105.597 172.958C106.842 173.761 108.691 174.747 111.145 175.916C113.16 176.865 114.863 177.851 116.256 178.873C117.683 179.895 118.782 181.1 119.551 182.486C120.321 183.873 120.705 185.589 120.704 187.636H120.706ZM151.842 198.48L148.985 189.169H134.701L131.845 198.48H122.89L136.734 159.212H146.899L160.797 198.48H151.842ZM147.008 182.214L144.151 173.123C143.968 172.502 143.73 171.717 143.437 170.768C143.143 169.819 142.85 168.851 142.558 167.866C142.265 166.88 142.027 166.022 141.843 165.292C141.66 166.022 141.404 166.935 141.074 168.03C140.781 169.089 140.488 170.111 140.195 171.097C139.939 172.047 139.737 172.722 139.591 173.123L136.789 182.215L147.008 182.214Z" fill="#0D0D0D"/>
</svg>
