<svg width="47" height="47" viewBox="0 0 47 47" fill="none" xmlns="http://www.w3.org/2000/svg">
<g clip-path="url(#clip0_1_182)">
<path d="M13.8191 12.2237C13.8191 11.827 14.1411 11.505 14.5378 11.505C14.9346 11.505 15.2566 11.827 15.2566 12.2237C15.2566 12.6205 14.9346 12.9425 14.5378 12.9425C14.1411 12.9425 13.8191 12.6205 13.8191 12.2237ZM18.8503 12.9425C19.2471 12.9425 19.5691 12.6205 19.5691 12.2237C19.5691 11.827 19.2471 11.505 18.8503 11.505C18.4536 11.505 18.1316 11.827 18.1316 12.2237C18.1316 12.6205 18.4536 12.9425 18.8503 12.9425ZM16.6941 17.255C18.2797 17.255 19.5691 15.9656 19.5691 14.38H18.1316C18.1316 15.1728 17.4869 15.8175 16.6941 15.8175C15.9013 15.8175 15.2566 15.1728 15.2566 14.38H13.8191C13.8191 15.9656 15.1085 17.255 16.6941 17.255ZM44.3422 26.3889C43.9383 26.9711 43.2749 27.3175 42.5684 27.3175C42.1292 27.3175 41.7051 27.1845 41.3422 26.9344L39.4662 25.6356L35.7 31.0751C34.8361 32.3229 33.4151 33.0675 31.8978 33.0675C31.2452 33.0675 30.6127 32.9331 30.019 32.6679L25.3191 30.5799V46.005H8.06909V38.8175H7.35034C5.36875 38.8175 3.75659 37.2053 3.75659 35.2237V28.801C3.75659 26.2803 5.00865 23.9408 7.10525 22.5436C8.03387 21.9247 9.1084 21.5143 10.2131 21.3562L13.2383 20.9242L13.6545 19.2617C12.8933 18.7716 12.2644 18.0909 11.8052 17.2543H10.9441C9.35853 17.2543 8.06909 15.9648 8.06909 14.3793V10.0668V9.34802V8.62927C8.06909 4.66609 11.2934 1.44177 15.2566 1.44177H18.1316C20.9994 1.44177 23.5862 3.15527 24.7211 5.75427H26.0378C27.2267 5.75427 28.1941 6.72171 28.1941 7.91052C28.1941 9.09934 27.2267 10.0668 26.0378 10.0668H25.3191V14.3793C25.3191 15.9648 24.0297 17.2543 22.4441 17.2543H21.583C21.1245 18.0902 20.4956 18.7716 19.7337 19.2617L20.1498 20.9242L22.5821 21.2706C24.0807 21.4856 25.5282 22.0577 26.7674 22.9252L31.611 26.3163L34.4961 22.195L34.1417 21.9499C33.6135 22.1734 33.0651 22.2862 32.5066 22.2862C30.1282 22.2862 28.1941 20.3521 28.1941 17.9737C28.1941 17.8286 28.2106 17.6884 28.2307 17.5482L28.2437 17.4534C28.2739 17.204 28.4334 16.9883 28.6627 16.8856C28.892 16.7813 29.1587 16.8072 29.3664 16.9502L30.6608 17.8465C30.9764 18.065 31.4428 17.9795 31.6613 17.664C31.8863 17.3391 31.8044 16.8906 31.4788 16.6642L30.0118 15.6486C29.8192 15.5149 29.7042 15.2978 29.702 15.0642C29.6999 14.8306 29.8113 14.61 30.0017 14.4741C30.7421 13.9423 31.6082 13.6612 32.5066 13.6612C34.8849 13.6612 36.8191 15.5954 36.8191 17.9737C36.8191 18.1534 36.8047 18.3374 36.7767 18.5286L43.7967 23.3881C44.7742 24.0659 45.0186 25.4121 44.3422 26.3889ZM13.8191 22.4659V25.5824L15.6002 23.8014L13.8191 22.4659ZM14.8354 26.5987H18.5528L16.6941 24.7401L14.8354 26.5987ZM17.788 23.8014L19.5691 25.5824V22.4659L17.788 23.8014ZM23.8816 14.38C23.8816 13.5872 23.2369 12.9425 22.4441 12.9425V13.6612C22.4441 14.4325 22.3427 15.1534 22.1602 15.8175H22.4441C23.2369 15.8175 23.8816 15.1728 23.8816 14.38ZM23.8816 10.0675H22.4441V11.505C22.9702 11.505 23.4568 11.6574 23.8816 11.9046V10.0675ZM18.8503 7.19249C17.9131 7.19249 17.1138 7.79337 16.817 8.62999H26.0378C26.4346 8.62999 26.7566 8.30799 26.7566 7.91124C26.7566 7.51449 26.4346 7.19249 26.0378 7.19249H18.8503ZM9.50659 8.62999H15.3292C15.6627 6.99196 17.1146 5.75499 18.8503 5.75499H23.1132C22.0991 4.00196 20.2081 2.87999 18.1316 2.87999H15.2566C12.0862 2.87999 9.50659 5.45959 9.50659 8.62999ZM9.50659 10.0675V11.9046C9.93137 11.6574 10.418 11.505 10.9441 11.505V10.0675H9.50659ZM11.228 15.8175C11.0454 15.1534 10.9441 14.4325 10.9441 13.6612V12.9425C10.1513 12.9425 9.50659 13.5872 9.50659 14.38C9.50659 15.1728 10.1513 15.8175 10.9441 15.8175H11.228ZM16.6941 18.6925C19.3139 18.6925 21.0066 16.7174 21.0066 13.6612V10.0675H12.3816V13.6612C12.3816 16.7174 14.0742 18.6925 16.6941 18.6925ZM14.9813 19.8791L14.632 21.2793L16.6941 22.8253L18.7562 21.2793L18.4069 19.8791C17.8728 20.0416 17.3007 20.13 16.6941 20.13C16.0875 20.13 15.5153 20.0416 14.9813 19.8791ZM9.50659 22.9921V33.0675H10.9441V29.4737H22.4441V40.255H23.8816V23.0711C23.3914 22.9029 22.8904 22.7678 22.378 22.6945L21.0066 22.499V28.0362H12.3816V22.499L10.4172 22.78C10.1082 22.8239 9.80559 22.9008 9.50659 22.9921ZM21.0066 41.6925V30.9112H12.3816V33.0675H15.2566C16.8422 33.0675 18.1316 34.3569 18.1316 35.9425C18.1316 37.5281 16.8422 38.8175 15.2566 38.8175H12.3816V41.6925H21.0066ZM13.8191 34.505V37.38H15.2566C16.0494 37.38 16.6941 36.7353 16.6941 35.9425C16.6941 35.1497 16.0494 34.505 15.2566 34.505H13.8191ZM7.35034 37.38H12.3816V34.505H8.06909V33.7862V33.0675V23.6418C8.01447 23.6756 7.95625 23.7036 7.90306 23.7396C6.20681 24.8709 5.19409 26.7626 5.19409 28.801V35.2237C5.19409 36.4126 6.16153 37.38 7.35034 37.38ZM9.50659 38.8175V40.255H10.9441V38.8175H9.50659ZM9.50659 44.5675H15.9753V43.13H10.9441V41.6925H9.50659V44.5675ZM23.8816 44.5675V41.6925H22.4441V43.13H17.4128V44.5675H23.8816ZM36.6114 27.2334L34.021 25.3812L31.9646 28.3187L25.943 24.104C25.7432 23.9638 25.5311 23.8416 25.3191 23.7201V29.0073L30.6041 31.3554C31.013 31.5373 31.4479 31.63 31.8978 31.63C32.9429 31.63 33.9218 31.1168 34.5176 30.2572L36.6114 27.2334ZM38.2839 24.8177L35.6777 23.0136L34.8454 24.2031L37.43 26.0511L38.2839 24.8177ZM43.2756 25.0326C43.2411 24.8428 43.1355 24.679 42.9781 24.5697L35.5699 19.4414C35.3234 19.2711 35.2084 18.9649 35.2824 18.6738C35.35 18.4086 35.3816 18.1865 35.3816 17.9737C35.3816 16.3882 34.0921 15.0987 32.5066 15.0987C32.2845 15.0987 32.066 15.1246 31.8525 15.1756L32.296 15.4826C33.2735 16.1596 33.5179 17.5058 32.8415 18.4833C32.1875 19.4271 30.7888 19.6822 29.8415 19.0289L29.8278 19.0195C30.2476 20.089 31.2905 20.8487 32.5066 20.8487C32.9687 20.8487 33.4251 20.728 33.8643 20.4894C33.9714 20.4311 34.0893 20.4024 34.2079 20.4024C34.3509 20.4024 34.4939 20.4455 34.6168 20.5303L42.1608 25.7528C42.4764 25.9713 42.9428 25.885 43.1613 25.5702C43.2691 25.4135 43.3101 25.2223 43.2756 25.0326Z" fill="url(#paint0_linear_1_182)"/>
</g>
<defs>
<linearGradient id="paint0_linear_1_182" x1="0.473766" y1="6.04932" x2="48.6542" y2="52.7773" gradientUnits="userSpaceOnUse">
<stop stop-color="#003A92"/>
<stop offset="1" stop-color="#74A0E3"/>
</linearGradient>
<clipPath id="clip0_1_182">
<rect width="46" height="46" fill="white" transform="translate(0.881592 0.723633)"/>
</clipPath>
</defs>
</svg>
